<svg width="405" height="139" viewBox="0 0 405 139" fill="none" xmlns="http://www.w3.org/2000/svg">
<path d="M330.425 106.966V1.9591H334.343V106.966H330.425ZM313.185 106.966V1.9591H317.103V106.966H313.185ZM321.805 106.966V1.9591H325.723V106.966H321.805ZM339.045 63.0827V59.1645H369.737C374.7 59.1645 379.184 58.0762 383.189 55.8994C387.282 53.7226 390.503 50.6316 392.854 46.6264C395.292 42.6211 396.511 37.9193 396.511 32.5209C396.511 27.1225 395.292 22.4207 392.854 18.4155C390.503 14.4102 387.282 11.3192 383.189 9.14243C379.184 6.96566 374.7 5.87728 369.737 5.87728H339.045V1.9591H369.737C375.397 1.9591 380.534 3.26516 385.149 5.87728C389.85 8.40233 393.551 11.9722 396.25 16.587C399.036 21.1146 400.429 26.426 400.429 32.5209C400.429 38.6159 399.036 43.9707 396.25 48.5855C393.551 53.1131 389.85 56.683 385.149 59.2952C380.534 61.8202 375.397 63.0827 369.737 63.0827H339.045ZM339.045 54.4627V50.5445H369.737C374.787 50.5445 379.054 48.9773 382.536 45.8427C386.106 42.6211 387.891 38.1805 387.891 32.5209C387.891 26.8613 386.106 22.4642 382.536 19.3297C379.054 16.1081 374.787 14.4973 369.737 14.4973H339.045V10.5791H369.737C373.829 10.5791 377.53 11.4933 380.839 13.3218C384.147 15.0632 386.803 17.5883 388.805 20.897C390.808 24.1186 391.809 27.9932 391.809 32.5209C391.809 37.0486 390.808 40.9668 388.805 44.2755C386.803 47.4971 384.147 50.0221 380.839 51.8506C377.53 53.592 373.829 54.4627 369.737 54.4627H339.045ZM339.045 45.8427V41.9245H369.737C372.349 41.9245 374.569 41.1844 376.398 39.7042C378.313 38.137 379.271 35.7425 379.271 32.5209C379.271 29.2122 378.313 26.8178 376.398 25.3376C374.569 23.8574 372.349 23.1173 369.737 23.1173H339.045V19.1991H369.737C373.481 19.1991 376.659 20.331 379.271 22.5949C381.883 24.8587 383.189 28.1674 383.189 32.5209C383.189 36.8744 381.883 40.1831 379.271 42.447C376.659 44.7108 373.481 45.8427 369.737 45.8427H339.045ZM338.653 106.966V103.048H370.39C376.746 103.048 382.188 101.829 386.716 99.3912C391.331 96.8662 394.857 93.4704 397.295 89.2039C399.82 84.8504 401.082 79.9309 401.082 74.4455C401.082 71.0497 400.647 67.8281 399.776 64.7806C398.993 61.6461 397.73 58.9033 395.989 56.5524C396.511 56.1171 396.99 55.6817 397.426 55.2464C397.948 54.7239 398.383 54.158 398.732 53.5485C402.911 59.0339 405.001 65.9996 405.001 74.4455C405.001 80.6275 403.564 86.2 400.691 91.163C397.904 96.039 393.899 99.9136 388.675 102.787C383.538 105.573 377.443 106.966 370.39 106.966H338.653ZM338.653 98.3464V94.4282H370.39C377.617 94.4282 383.102 92.5562 386.846 88.8121C390.59 85.0681 392.462 80.2792 392.462 74.4455C392.462 72.1816 392.201 70.0049 391.679 67.9152C391.156 65.7384 390.416 63.8228 389.459 62.1685C390.155 61.8202 390.765 61.4284 391.287 60.993C391.809 60.5577 392.245 60.1659 392.593 59.8176C393.812 61.7331 394.726 63.9534 395.336 66.4785C396.032 69.0035 396.381 71.6592 396.381 74.4455C396.381 81.324 394.117 87.0272 389.589 91.5548C385.061 96.0825 378.662 98.3464 370.39 98.3464H338.653ZM338.653 89.7264V85.8082H370.39C375.179 85.8082 378.618 84.7633 380.708 82.6736C382.798 80.5839 383.842 77.8412 383.842 74.4455C383.842 71.2238 383.015 68.4376 381.361 66.0867C381.97 65.9125 382.58 65.6948 383.189 65.4336C383.799 65.0854 384.408 64.7371 385.018 64.3888C386.846 67.3492 387.761 70.7014 387.761 74.4455C387.761 78.9731 386.324 82.6736 383.451 85.547C380.664 88.3332 376.311 89.7264 370.39 89.7264H338.653Z" fill="black"/>
<path d="M233.82 106.966V103.048H248.186C255.587 103.048 262.335 101.873 268.43 99.5218C274.612 97.0838 279.967 93.6881 284.495 89.3345C289.023 84.981 292.505 79.8438 294.943 73.923C297.468 68.0022 298.731 61.5155 298.731 54.4627C298.731 47.41 297.468 40.9232 294.943 35.0024C292.505 29.0816 289.023 23.9445 284.495 19.5909C279.967 15.2374 274.612 11.8852 268.43 9.53425C262.335 7.09627 255.587 5.87728 248.186 5.87728H233.82V1.9591H248.317C256.24 1.9591 263.511 3.26516 270.128 5.87728C276.746 8.4894 282.492 12.1464 287.368 16.8482C292.244 21.55 296.032 27.079 298.731 33.4352C301.43 39.7913 302.78 46.8005 302.78 54.4627C302.78 62.125 301.43 69.1777 298.731 75.6209C296.032 81.9771 292.244 87.5061 287.368 92.2079C282.492 96.9097 276.746 100.567 270.128 103.179C263.511 105.704 256.24 106.966 248.317 106.966H233.82ZM225.2 106.966V1.9591H229.118V106.966H225.2ZM207.96 106.966V1.9591H211.878V106.966H207.96ZM216.58 106.966V1.9591H220.498V106.966H216.58ZM233.82 98.3464V94.4282H248.186C256.458 94.4282 263.729 92.7303 269.998 89.3345C276.267 85.9388 281.186 81.237 284.756 75.2291C288.326 69.1341 290.111 62.212 290.111 54.4627C290.111 46.6264 288.326 39.7042 284.756 33.6964C281.186 27.6885 276.267 22.9867 269.998 19.5909C263.729 16.1952 256.458 14.4973 248.186 14.4973H233.82V10.5791H248.317C257.285 10.5791 265.209 12.4947 272.087 16.3258C278.966 20.0698 284.364 25.2505 288.282 31.8679C292.201 38.3982 294.16 45.9298 294.16 54.4627C294.16 62.9957 292.201 70.5708 288.282 77.1882C284.364 83.8056 278.966 88.9863 272.087 92.7303C265.209 96.4743 257.285 98.3464 248.317 98.3464H233.82ZM233.82 89.7264V85.8082H248.186C254.804 85.8082 260.594 84.5021 265.557 81.89C270.52 79.2779 274.395 75.6209 277.181 70.9191C279.967 66.1302 281.36 60.6447 281.36 54.4627C281.36 48.1936 279.967 42.7082 277.181 38.0064C274.395 33.3046 270.52 29.6476 265.557 27.0355C260.594 24.4233 254.804 23.1173 248.186 23.1173H233.82V19.1991H248.317C255.631 19.1991 262.074 20.7228 267.647 23.7703C273.219 26.7307 277.573 30.8666 280.707 36.1779C283.842 41.4021 285.409 47.4971 285.409 54.4627C285.409 61.4284 283.842 67.5669 280.707 72.8782C277.573 78.1895 273.219 82.3254 267.647 85.2858C262.074 88.2462 255.631 89.7264 248.317 89.7264H233.82Z" fill="black"/>
<path d="M190.994 106.966V1.9591H194.912V106.966H190.994ZM173.754 106.966V1.9591H177.672V106.966H173.754ZM182.374 106.966V1.9591H186.292V106.966H182.374ZM121.25 106.966V1.9591H125.168V106.966H121.25ZM104.01 106.966V1.9591H107.928V106.966H104.01ZM112.63 106.966V1.9591H116.548V106.966H112.63ZM169.052 70.7885L129.87 14.4973V7.57516L169.052 63.8664V70.7885ZM169.052 85.9388L129.87 29.6476V22.7255L169.052 79.0167V85.9388ZM169.052 101.089L129.87 44.7979V37.8758L169.052 94.167V101.089Z" fill="black"/>
<path d="M54.4627 91.6855C46.7134 91.6855 40.0525 90.0311 34.48 86.7224C28.9075 83.3267 24.641 78.799 21.6806 73.1394C18.7202 67.4798 17.24 61.2542 17.24 54.4627C17.24 47.5841 18.7202 41.3586 21.6806 35.7861C24.641 30.1265 28.9075 25.6423 34.48 22.3336C40.0525 18.9379 46.7134 17.24 54.4627 17.24C60.1223 17.24 65.216 18.1978 69.7436 20.1133C74.2713 21.9418 78.1024 24.5104 81.237 27.8191L78.4942 30.5618C75.6209 27.6885 72.1816 25.4246 68.1764 23.7703C64.1711 22.116 59.5999 21.2888 54.4627 21.2888C47.4971 21.2888 41.4892 22.8125 36.4391 25.86C31.4761 28.8204 27.6885 32.8257 25.0764 37.8758C22.4642 42.8388 21.1582 48.3678 21.1582 54.4627C21.1582 60.5577 22.4642 66.1302 25.0764 71.1803C27.6885 76.1433 31.4761 80.1486 36.4391 83.1961C41.4892 86.1565 47.4971 87.6367 54.4627 87.6367C59.5999 87.6367 64.1711 86.8095 68.1764 85.1552C72.1816 83.5008 75.6209 81.237 78.4942 78.3636L81.237 81.1064C78.1024 84.328 74.2713 86.8966 69.7436 88.8121C65.216 90.7277 60.1223 91.6855 54.4627 91.6855ZM54.4627 100.305C47.4971 100.305 41.1844 99.13 35.5248 96.7791C29.9523 94.3411 25.1199 91.0324 21.0276 86.853C17.0223 82.6736 13.9313 77.8412 11.7545 72.3558C9.66485 66.7832 8.62 60.8189 8.62 54.4627C8.62 48.1066 9.66485 42.1858 11.7545 36.7003C13.9313 31.1278 17.0223 26.2518 21.0276 22.0724C25.1199 17.806 29.9523 14.4973 35.5248 12.1464C41.1844 9.79546 47.4971 8.62 54.4627 8.62C61.3413 8.62 67.5233 9.79546 73.0088 12.1464C78.5813 14.4102 83.3702 17.5883 87.3755 21.6806L84.5021 24.5539C80.9322 20.8099 76.5787 17.893 71.4415 15.8033C66.3914 13.7136 60.7318 12.6688 54.4627 12.6688C45.9298 12.6688 38.4853 14.5408 32.1291 18.2849C25.86 22.0289 21.0276 27.079 17.6318 33.4352C14.2361 39.7042 12.5382 46.7134 12.5382 54.4627C12.5382 62.125 14.2361 69.1341 17.6318 75.4903C21.0276 81.8465 25.86 86.8966 32.1291 90.6406C38.4853 94.3846 45.9298 96.2567 54.4627 96.2567C60.7318 96.2567 66.3914 95.2118 71.4415 93.1221C76.5787 91.0324 80.9322 88.1156 84.5021 84.3715L87.3755 87.2448C83.3702 91.2501 78.5813 94.4282 73.0088 96.7791C67.5233 99.13 61.3413 100.305 54.4627 100.305ZM54.4627 108.925C46.2781 108.925 38.8335 107.532 32.1291 104.746C25.5117 101.873 19.8086 97.9545 15.0197 92.9915C10.2308 88.0285 6.5303 82.2818 3.91818 75.7515C1.30606 69.1341 0 62.0379 0 54.4627C0 46.8876 1.30606 39.8349 3.91818 33.3045C6.5303 26.6872 10.2308 20.897 15.0197 15.9339C19.8086 10.9709 25.5117 7.09627 32.1291 4.31001C38.8335 1.43667 46.2781 0 54.4627 0C62.4732 0 69.7872 1.39313 76.4045 4.17939C83.0219 6.87859 88.7251 10.6662 93.5139 15.5421L90.7712 18.2849C86.3306 13.8442 81.0193 10.3614 74.8373 7.83636C68.7423 5.22424 61.9508 3.91819 54.4627 3.91819C46.8005 3.91819 39.8784 5.22424 33.6964 7.83636C27.5143 10.4485 22.203 14.0619 17.7624 18.6767C13.3218 23.2914 9.88252 28.6898 7.44455 34.8718C5.09364 40.9668 3.91818 47.4971 3.91818 54.4627C3.91818 61.4284 5.09364 68.0022 7.44455 74.1842C9.88252 80.2792 13.3218 85.634 17.7624 90.2488C22.203 94.8635 27.5143 98.477 33.6964 101.089C39.8784 103.701 46.8005 105.007 54.4627 105.007C61.9508 105.007 68.7423 103.745 74.8373 101.22C81.0193 98.6076 86.3306 95.0812 90.7712 90.6406L93.5139 93.3833C88.7251 98.1722 83.0219 101.96 76.4045 104.746C69.7872 107.532 62.4732 108.925 54.4627 108.925Z" fill="black"/>
<rect y="130" width="269" height="9" fill="#CB6868"/>
<rect x="275" y="130" width="93" height="9" fill="#659F70"/>
<rect x="373" y="130" width="32" height="9" fill="#817D7D"/>
</svg>
