<svg width="138" height="36" viewBox="0 0 138 36" fill="none" xmlns="http://www.w3.org/2000/svg">
<path d="M120.227 0H123.525V36H120.227V0ZM96.1477 3.0596H99.4457V12.5166H109.817V3.0596H113.075V27.3378H96.1477V3.0596ZM99.4457 15.1391V24.596H109.817V15.1391H99.4457Z" fill="white"/>
<path d="M57.5283 20.861H90.1111V23.5629H57.5283V20.861ZM72.1111 22.5298H75.3694V35.9206H72.1111V22.5298ZM61.7005 1.98679H85.9389V16.0133H61.7005V1.98679ZM82.6806 4.64904H64.9191V13.3908H82.6806V4.64904Z" fill="white"/>
<path d="M31.2794 32.861V29.2346L45.7003 9.00018H31.2512V3.96274H53.3764V7.58913L38.9414 27.8236H53.4047V32.861H31.2794Z" fill="white"/>
<path d="M27.0639 18.4118C27.0639 21.5632 26.4665 24.2442 25.2719 26.4548C24.0866 28.6655 22.4686 30.354 20.4179 31.5205C18.3765 32.6775 16.0812 33.2561 13.5319 33.2561C10.9638 33.2561 8.65913 32.6728 6.61781 31.5064C4.5765 30.3399 2.9632 28.6514 1.77792 26.4407C0.59264 24.2301 0 21.5538 0 18.4118C0 15.2605 0.59264 12.5795 1.77792 10.3689C2.9632 8.15824 4.5765 6.47439 6.61781 5.31733C8.65913 4.15086 10.9638 3.56763 13.5319 3.56763C16.0812 3.56763 18.3765 4.15086 20.4179 5.31733C22.4686 6.47439 24.0866 8.15824 25.2719 10.3689C26.4665 12.5795 27.0639 15.2605 27.0639 18.4118ZM20.8694 18.4118C20.8694 16.3705 20.5637 14.6491 19.9522 13.2474C19.3502 11.8458 18.4988 10.7828 17.3982 10.0584C16.2976 9.33411 15.0088 8.97194 13.5319 8.97194C12.0551 8.97194 10.7663 9.33411 9.66568 10.0584C8.56506 10.7828 7.70902 11.8458 7.09757 13.2474C6.49552 14.6491 6.1945 16.3705 6.1945 18.4118C6.1945 20.4532 6.49552 22.1746 7.09757 23.5763C7.70902 24.9779 8.56506 26.0409 9.66568 26.7652C10.7663 27.4896 12.0551 27.8518 13.5319 27.8518C15.0088 27.8518 16.2976 27.4896 17.3982 26.7652C18.4988 26.0409 19.3502 24.9779 19.9522 23.5763C20.5637 22.1746 20.8694 20.4532 20.8694 18.4118Z" fill="white"/>
<circle cx="133" cy="31" r="5" fill="url(#paint0_linear_23_14)"/>
<defs>
<linearGradient id="paint0_linear_23_14" x1="138" y1="35.9983" x2="128" y2="26.0017" gradientUnits="userSpaceOnUse">
<stop stop-color="#8000FF"/>
<stop offset="1" stop-color="#D644B6"/>
</linearGradient>
</defs>
</svg>
