<svg width="684" height="684" viewBox="0 0 684 684" fill="none" xmlns="http://www.w3.org/2000/svg">
<path d="M641.517 332.05L683.16 330.737C682.753 317.823 676.38 305.83 665.907 298.267C655.433 290.703 642.043 288.43 629.657 292.107L641.517 332.05ZM351.283 41.818L391.227 53.676C394.903 41.291 392.63 27.901 385.067 17.4267C377.503 6.95233 365.51 0.578666 352.597 0.171999L351.283 41.818ZM629.657 292.107C612.387 297.233 594.053 300 575 300V383.333C602.167 383.333 628.487 379.38 653.373 371.993L629.657 292.107ZM575 300C469.147 300 383.333 214.188 383.333 108.333H300C300 260.212 423.123 383.333 575 383.333V300ZM383.333 108.333C383.333 89.2803 386.1 70.947 391.227 53.676L311.34 29.9597C303.953 54.8473 300 81.1653 300 108.333H383.333ZM341.667 83.3333C344.447 83.3333 347.217 83.377 349.973 83.464L352.597 0.171999C348.967 0.0576658 345.323 0 341.667 0V83.3333ZM83.3333 341.667C83.3333 198.993 198.993 83.3333 341.667 83.3333V0C152.969 0 0 152.969 0 341.667H83.3333ZM341.667 600C198.993 600 83.3333 484.34 83.3333 341.667H0C0 530.363 152.969 683.333 341.667 683.333V600ZM600 341.667C600 484.34 484.34 600 341.667 600V683.333C530.363 683.333 683.333 530.363 683.333 341.667H600ZM599.87 333.36C599.957 336.117 600 338.887 600 341.667H683.333C683.333 338.01 683.277 334.367 683.16 330.737L599.87 333.36Z" fill="white"/>
</svg>
